<svg id="Calque_1" data-name="Calque 1" xmlns="http://www.w3.org/2000/svg" viewBox="0 0 384 378.08"><defs><style>.cls-1{fill:#fff;}</style></defs><title>git</title><path class="cls-1" d="M240,48C134,48,48,134,48,240c0,90,62,165.25,145.47,186.08a28.17,28.17,0,0,1-1.47-9.33V383.94H167.87c-13.13,0-24.81-5.65-30.48-16.15-6.29-11.66-7.37-29.5-23-40.41-4.62-3.64-1.1-7.78,4.23-7.22,9.84,2.78,18,9.54,25.68,19.55S155.58,352,169.87,352a183,183,0,0,0,27.06-1.94c5.25-13.33,14.32-25.6,25.41-31.39-63.94-6.58-94.45-38.39-94.45-81.57,0-18.59,7.92-36.58,21.37-51.73-4.41-15-10-45.71,1.7-57.39,28.77,0,46.16,18.66,50.34,23.7a145.11,145.11,0,0,1,93.37,0c4.13-5,21.54-23.73,50.37-23.73,11.71,11.7,6.1,42.5,1.63,57.5,13.38,15.12,21.25,33.06,21.25,51.62,0,43.15-30.46,74.94-94.3,81.55C291.18,327.84,304,353.6,304,373v43.74a28.26,28.26,0,0,1-.56,4.29C378.26,394.82,432,323.78,432,240,432,134,346,48,240,48Z" transform="translate(-48 -48)"/></svg>