<svg id="Calque_1" data-name="Calque 1" xmlns="http://www.w3.org/2000/svg" viewBox="0 0 23.23 22"><defs><style>.cls-1{fill:#fff;}</style></defs><title>itch-io</title><path class="cls-1" d="M16,5c-3.25,0-7.69,0-8.59.13-1,.61-3,2.9-3,3.5v1A2.48,2.48,0,0,0,6.64,12,2.37,2.37,0,0,0,9,9.67,2.34,2.34,0,0,0,11.31,12a2.31,2.31,0,0,0,2.3-2.33A2.39,2.39,0,0,0,16,12h0a2.39,2.39,0,0,0,2.38-2.33A2.32,2.32,0,0,0,20.69,12,2.34,2.34,0,0,0,23,9.67,2.37,2.37,0,0,0,25.36,12a2.48,2.48,0,0,0,2.26-2.37v-1c0-.6-2-2.89-3-3.5C21.44,5,19.25,5,16,5Zm-2.45,6.74a2.74,2.74,0,0,1-4.73,0,2.7,2.7,0,0,1-2.67,1.31c-.17,1.9-.3,11.65,1,13.28,3.79.89,14,.87,17.7,0,1.5-1.52,1.16-11.52,1-13.28a2.68,2.68,0,0,1-2.66-1.31,2.74,2.74,0,0,1-4.74,0A2.7,2.7,0,0,1,16,13.11,2.72,2.72,0,0,1,13.55,11.74ZM11.42,14a2.7,2.7,0,0,1,2.41,1,21,21,0,0,1,4.34,0,2.72,2.72,0,0,1,2.41-1c2.58,0,3.2,3.81,4.13,7.09.84,3-.28,3.13-1.67,3.13a3.14,3.14,0,0,1-3.22-3.09,25.62,25.62,0,0,1-7.64,0A3.14,3.14,0,0,1,9,24.23c-1.39,0-2.51-.08-1.67-3.13C8.22,17.8,8.84,14,11.42,14ZM16,16.88A18.52,18.52,0,0,0,14,19l1.11,0v1a4.34,4.34,0,0,0,.89,0,4.12,4.12,0,0,0,.89,0v-1L18,19A18.52,18.52,0,0,0,16,16.88Z" transform="translate(-4.38 -5)"/></svg>