<svg id="Calque_1" data-name="Calque 1" xmlns="http://www.w3.org/2000/svg" viewBox="0 0 22 22"><defs><style>.cls-1{fill:#fff;}</style></defs><title>linkedin</title><path class="cls-1" d="M24,4H6A2,2,0,0,0,4,6V24a2,2,0,0,0,2,2H24a2,2,0,0,0,2-2V6A2,2,0,0,0,24,4ZM11,22H8V12.51H11ZM9.45,11.15a1.72,1.72,0,1,1,1.72-1.72A1.72,1.72,0,0,1,9.45,11.15ZM22,22H19.06V17.38c0-1.1,0-2.51-1.54-2.51s-1.77,1.2-1.77,2.43V22H12.8V12.51h2.83V13.8h0a3.12,3.12,0,0,1,2.79-1.53c3,0,3.54,2,3.54,4.52Z" transform="translate(-4 -4)"/></svg>