<svg id="Calque_1" data-name="Calque 1" xmlns="http://www.w3.org/2000/svg" viewBox="0 0 100 72"><defs><style>.cls-1{fill:#fff;}</style></defs><title>mail</title><g id="Calque_2" data-name="Calque 2"><g id="Calque_1-2" data-name="Calque 1-2"><path class="cls-1" d="M100,14v6C86.79,31.38,73.54,42.72,60.38,54.15,51.33,62,48.72,62,39.63,54.13,26.45,42.71,13.21,31.38,0,20V14Z" transform="translate(0 -14)"/><path class="cls-1" d="M100,80v6H0V80L32,55c6.66,3.33,12.35,8.44,18,8.36,5.81-.09,11.55-5.2,18-8.44Z" transform="translate(0 -14)"/><path class="cls-1" d="M0,25,30.29,51.17,0,75Z" transform="translate(0 -14)"/><path class="cls-1" d="M100,75,69.78,51.19,100,25Z" transform="translate(0 -14)"/></g></g></svg>